<?xml version="1.0" standalone="no" ?>
<!DOCTYPE svg PUBLIC "-//W3C//DTD SVG 1.1//EN" "http://www.w3.org/Graphics/SVG/1.1/DTD/svg11.dtd">
<svg width="20px" height="20px" xmlns="http://www.w3.org/2000/svg" version="1.1" >
	<polygon points="0,20 10,20 10,10 " fill="rgb(0,255,0)" stroke-linecap="round" stroke-linejoin="round" stroke-width="0.1" stroke="rgb(0,170,0)" />
	<polygon points="0,20 0,10 10,10 " fill="rgb(0,255,0)" stroke-linecap="round" stroke-linejoin="round" stroke-width="0.1" stroke="rgb(0,170,0)" />
	<polygon points="0,10 10,10 10,0 " fill="rgb(0,255,0)" stroke-linecap="round" stroke-linejoin="round" stroke-width="0.1" stroke="rgb(0,170,0)" />
	<polygon points="10,20 10,10 20,10 " fill="rgb(0,255,0)" stroke-linecap="round" stroke-linejoin="round" stroke-width="0.1" stroke="rgb(0,170,0)" />
	<polygon points="10,10 20,10 20,0 " fill="rgb(0,255,0)" stroke-linecap="round" stroke-linejoin="round" stroke-width="0.1" stroke="rgb(0,170,0)" />
	<polygon points="10,10 10,0 20,0 " fill="rgb(0,255,0)" stroke-linecap="round" stroke-linejoin="round" stroke-width="0.1" stroke="rgb(0,170,0)" />
	<polygon points="5,20 5,15 10,15 " fill="rgb(255,195,15)" stroke-linecap="round" stroke-linejoin="round" stroke-width="0.1" stroke="rgb(170,130,10)" />
	<polygon points="0,15 5,15 5,10 " fill="rgb(255,195,15)" stroke-linecap="round" stroke-linejoin="round" stroke-width="0.1" stroke="rgb(170,130,10)" />
	<polygon points="5,10 5,5 10,5 " fill="rgb(255,195,15)" stroke-linecap="round" stroke-linejoin="round" stroke-width="0.1" stroke="rgb(170,130,10)" />
	<polygon points="10,15 15,15 15,10 " fill="rgb(255,195,15)" stroke-linecap="round" stroke-linejoin="round" stroke-width="0.1" stroke="rgb(170,130,10)" />
	<polygon points="15,10 15,5 20,5 " fill="rgb(255,195,15)" stroke-linecap="round" stroke-linejoin="round" stroke-width="0.1" stroke="rgb(170,130,10)" />
	<polygon points="10,5 15,5 15,0 " fill="rgb(255,195,15)" stroke-linecap="round" stroke-linejoin="round" stroke-width="0.1" stroke="rgb(170,130,10)" />
	<polygon points="0,15 5,20 5,15 " fill="rgb(255,195,15)" stroke-linecap="round" stroke-linejoin="round" stroke-width="0.1" stroke="rgb(170,130,10)" />
	<polygon points="0,15 5,10 5,5 " fill="rgb(255,195,15)" stroke-linecap="round" stroke-linejoin="round" stroke-width="0.1" stroke="rgb(170,130,10)" />
	<polygon points="5,20 10,15 15,15 " fill="rgb(255,195,15)" stroke-linecap="round" stroke-linejoin="round" stroke-width="0.1" stroke="rgb(170,130,10)" />
	<polygon points="5,15 5,10 10,15 " fill="rgb(255,195,15)" stroke-linecap="round" stroke-linejoin="round" stroke-width="0.1" stroke="rgb(170,130,10)" />
	<polygon points="5,10 10,15 15,10 " fill="rgb(255,195,15)" stroke-linecap="round" stroke-linejoin="round" stroke-width="0.1" stroke="rgb(170,130,10)" />
	<polygon points="5,10 10,5 15,10 " fill="rgb(255,195,15)" stroke-linecap="round" stroke-linejoin="round" stroke-width="0.1" stroke="rgb(170,130,10)" />
	<polygon points="5,5 10,5 15,0 " fill="rgb(255,195,15)" stroke-linecap="round" stroke-linejoin="round" stroke-width="0.1" stroke="rgb(170,130,10)" />
	<polygon points="10,5 15,10 15,5 " fill="rgb(255,195,15)" stroke-linecap="round" stroke-linejoin="round" stroke-width="0.1" stroke="rgb(170,130,10)" />
	<polygon points="15,15 15,10 20,5 " fill="rgb(255,195,15)" stroke-linecap="round" stroke-linejoin="round" stroke-width="0.1" stroke="rgb(170,130,10)" />
	<polygon points="15,5 15,0 20,5 " fill="rgb(255,195,15)" stroke-linecap="round" stroke-linejoin="round" stroke-width="0.1" stroke="rgb(170,130,10)" />
	<polygon points="3.33333,16.6667 3.33333,13.3333 6.66667,16.6667 " fill="rgb(255,0,0)" stroke-linecap="round" stroke-linejoin="round" stroke-width="0.1" stroke="rgb(170,0,0)" />
	<polygon points="3.33333,13.3333 3.33333,10 6.66667,6.66667 " fill="rgb(255,0,0)" stroke-linecap="round" stroke-linejoin="round" stroke-width="0.1" stroke="rgb(170,0,0)" />
	<polygon points="6.66667,16.6667 10,16.6667 13.3333,13.3333 " fill="rgb(255,0,0)" stroke-linecap="round" stroke-linejoin="round" stroke-width="0.1" stroke="rgb(170,0,0)" />
	<polygon points="3.33333,13.3333 6.66667,16.6667 6.66667,13.3333 " fill="rgb(255,0,0)" stroke-linecap="round" stroke-linejoin="round" stroke-width="0.1" stroke="rgb(170,0,0)" />
	<polygon points="6.66667,13.3333 10,10 13.3333,13.3333 " fill="rgb(255,0,0)" stroke-linecap="round" stroke-linejoin="round" stroke-width="0.1" stroke="rgb(170,0,0)" />
	<polygon points="6.66667,6.66667 10,10 13.3333,6.66667 " fill="rgb(255,0,0)" stroke-linecap="round" stroke-linejoin="round" stroke-width="0.1" stroke="rgb(170,0,0)" />
	<polygon points="6.66667,6.66667 10,3.33333 13.3333,3.33333 " fill="rgb(255,0,0)" stroke-linecap="round" stroke-linejoin="round" stroke-width="0.1" stroke="rgb(170,0,0)" />
	<polygon points="13.3333,6.66667 13.3333,3.33333 16.6667,6.66667 " fill="rgb(255,0,0)" stroke-linecap="round" stroke-linejoin="round" stroke-width="0.1" stroke="rgb(170,0,0)" />
	<polygon points="13.3333,13.3333 16.6667,10 16.6667,6.66667 " fill="rgb(255,0,0)" stroke-linecap="round" stroke-linejoin="round" stroke-width="0.1" stroke="rgb(170,0,0)" />
	<polygon points="13.3333,3.33333 16.6667,6.66667 16.6667,3.33333 " fill="rgb(255,0,0)" stroke-linecap="round" stroke-linejoin="round" stroke-width="0.1" stroke="rgb(170,0,0)" />
	<polygon points="6.66667,16.6667 6.66667,13.3333 13.3333,13.3333 " fill="rgb(255,0,0)" stroke-linecap="round" stroke-linejoin="round" stroke-width="0.1" stroke="rgb(170,0,0)" />
	<polygon points="6.66667,6.66667 13.3333,6.66667 13.3333,3.33333 " fill="rgb(255,0,0)" stroke-linecap="round" stroke-linejoin="round" stroke-width="0.1" stroke="rgb(170,0,0)" />
	<polygon points="3.33333,13.3333 6.66667,13.3333 10,10 " fill="rgb(255,0,0)" stroke-linecap="round" stroke-linejoin="round" stroke-width="0.1" stroke="rgb(170,0,0)" />
	<polygon points="3.33333,13.3333 6.66667,6.66667 10,10 " fill="rgb(255,0,0)" stroke-linecap="round" stroke-linejoin="round" stroke-width="0.1" stroke="rgb(170,0,0)" />
	<polygon points="10,10 13.3333,13.3333 13.3333,6.66667 " fill="rgb(255,0,0)" stroke-linecap="round" stroke-linejoin="round" stroke-width="0.1" stroke="rgb(170,0,0)" />
	<polygon points="13.3333,13.3333 13.3333,6.66667 16.6667,6.66667 " fill="rgb(255,0,0)" stroke-linecap="round" stroke-linejoin="round" stroke-width="0.1" stroke="rgb(170,0,0)" />
	<polygon points="5,15 10,15 10,12.5 " fill="rgb(0,0,255)" stroke-linecap="round" stroke-linejoin="round" stroke-width="0.1" stroke="rgb(0,0,170)" />
	<polygon points="10,7.5 10,5 15,5 " fill="rgb(0,0,255)" stroke-linecap="round" stroke-linejoin="round" stroke-width="0.1" stroke="rgb(0,0,170)" />
	<polygon points="5,15 7.5,12.5 10,12.5 " fill="rgb(0,0,255)" stroke-linecap="round" stroke-linejoin="round" stroke-width="0.1" stroke="rgb(0,0,170)" />
	<polygon points="5,10 7.5,12.5 10,7.5 " fill="rgb(0,0,255)" stroke-linecap="round" stroke-linejoin="round" stroke-width="0.1" stroke="rgb(0,0,170)" />
	<polygon points="10,12.5 10,7.5 12.5,10 " fill="rgb(0,0,255)" stroke-linecap="round" stroke-linejoin="round" stroke-width="0.1" stroke="rgb(0,0,170)" />
	<polygon points="12.5,10 15,10 15,5 " fill="rgb(0,0,255)" stroke-linecap="round" stroke-linejoin="round" stroke-width="0.1" stroke="rgb(0,0,170)" />
	<polygon points="7.5,12.5 10,12.5 10,7.5 " fill="rgb(0,0,255)" stroke-linecap="round" stroke-linejoin="round" stroke-width="0.1" stroke="rgb(0,0,170)" />
	<polygon points="10,7.5 12.5,10 15,5 " fill="rgb(0,0,255)" stroke-linecap="round" stroke-linejoin="round" stroke-width="0.1" stroke="rgb(0,0,170)" />
	<polygon points="10,15 12.5,10 15,10 " fill="rgb(0,0,255)" stroke-linecap="round" stroke-linejoin="round" stroke-width="0.1" stroke="rgb(0,0,170)" />
	<polygon points="10,15 10,12.5 12.5,10 " fill="rgb(0,0,255)" stroke-linecap="round" stroke-linejoin="round" stroke-width="0.1" stroke="rgb(0,0,170)" />
	<polygon points="8,14 8,10 10,10 " fill="rgb(255,170,255)" stroke-linecap="round" stroke-linejoin="round" stroke-width="0.1" stroke="rgb(170,113,170)" />
	<polygon points="10,10 12,6 14,8 " fill="rgb(255,170,255)" stroke-linecap="round" stroke-linejoin="round" stroke-width="0.1" stroke="rgb(170,113,170)" />
	<polygon points="10,12 12,12 14,8 " fill="rgb(255,170,255)" stroke-linecap="round" stroke-linejoin="round" stroke-width="0.1" stroke="rgb(170,113,170)" />
	<polygon points="8,14 10,12 10,10 " fill="rgb(255,170,255)" stroke-linecap="round" stroke-linejoin="round" stroke-width="0.1" stroke="rgb(170,113,170)" />
	<polygon points="10,12 10,10 14,8 " fill="rgb(255,170,255)" stroke-linecap="round" stroke-linejoin="round" stroke-width="0.1" stroke="rgb(170,113,170)" />
	<polygon points="8.33333,11.6667 11.6667,10 11.6667,8.33333 " fill="rgb(255,0,0)" stroke-linecap="round" stroke-linejoin="round" stroke-width="0.1" stroke="rgb(170,0,0)" />
</svg>
